{
  "asset": {
    "version": "2.0",
    "generator": "THREE.GLTFExporter r179"
  },
  "scenes": [
    {
      "name": "Scene",
      "nodes": [
        0
      ]
    }
  ],
  "scene": 0,
  "nodes": [
    {
      "matrix": [
        0.45,
        0,
        0,
        0,
        0,
        0.45,
        0,
        0,
        0,
        0,
        0.45,
        0,
        20.560273705437126,
        -11.334560959888542,
        -85.28307499046949,
        1
      ],
      "name": "epicur",
      "children": [
        1
      ]
    },
    {
      "matrix": [
        1,
        0,
        0,
        0,
        0,
        1,
        0,
        0,
        0,
        0,
        1,
        0,
        0,
        25.471768184815247,
        0,
        1
      ],
      "name": "epicur",
      "mesh": 0
    }
  ],
  "bufferViews": [
    {
      "buffer": 0,
      "byteOffset": 0,
      "byteLength": 1422144,
      "target": 34962,
      "byteStride": 12
    },
    {
      "buffer": 0,
      "byteOffset": 1422144,
      "byteLength": 1422144,
      "target": 34962,
      "byteStride": 12
    }
  ],
  "buffers": [
    {
      "byteLength": 2844288,
      "uri": "data:application/octet-stream;base64,"
    }
  ],
  "accessors": [
    {
      "bufferView": 0,
      "componentType": 5126,
      "count": 118512,
      "max": [
        -225.92381286621094,
        149.36326599121094,
        72.56599426269531
      ],
      "min": [
        -351.6393737792969,
        0.0007574374903924763,
        -71.44232177734375
      ],
      "type": "VEC3"
    },
    {
      "bufferView": 1,
      "componentType": 5126,
      "count": 118512,
      "max": [
        0.9999995231628418,
        0.9999489784240723,
        0.9995080828666687
      ],
      "min": [
        -0.9999005794525146,
        -1,
        -0.9999512434005737
      ],
      "type": "VEC3"
    }
  ],
  "materials": [
    {
      "pbrMetallicRoughness": {
        "metallicFactor": 0,
        "roughnessFactor": 1
      },
      "name": "default"
    }
  ],
  "meshes": [
    {
      "primitives": [
        {
          "mode": 4,
          "attributes": {
            "POSITION": 0,
            "NORMAL": 1
          },
          "material": 0
        }
      ]
    }
  ]
}