{
  "asset": {
    "version": "2.0",
    "generator": "THREE.GLTFExporter r179"
  },
  "scenes": [
    {
      "name": "Scene",
      "nodes": [
        0
      ]
    }
  ],
  "scene": 0,
  "nodes": [
    {
      "matrix": [
        2,
        0,
        0,
        0,
        0,
        2,
        0,
        0,
        0,
        0,
        2,
        0,
        0,
        0,
        0,
        1
      ],
      "name": "Grass2_3Dmodel.obj",
      "children": [
        1,
        2,
        3
      ]
    },
    {
      "name": "grassb GrassB",
      "mesh": 0
    },
    {
      "name": "GrassB grassb1",
      "mesh": 1
    },
    {
      "name": "GrassB grassb2",
      "mesh": 2
    }
  ],
  "bufferViews": [
    {
      "buffer": 0,
      "byteOffset": 0,
      "byteLength": 5616,
      "target": 34962,
      "byteStride": 12
    },
    {
      "buffer": 0,
      "byteOffset": 5616,
      "byteLength": 5616,
      "target": 34962,
      "byteStride": 12
    },
    {
      "buffer": 0,
      "byteOffset": 11232,
      "byteLength": 3744,
      "target": 34962,
      "byteStride": 8
    },
    {
      "buffer": 0,
      "byteOffset": 14976,
      "byteLength": 10260,
      "target": 34962,
      "byteStride": 12
    },
    {
      "buffer": 0,
      "byteOffset": 25236,
      "byteLength": 10260,
      "target": 34962,
      "byteStride": 12
    },
    {
      "buffer": 0,
      "byteOffset": 35496,
      "byteLength": 6840,
      "target": 34962,
      "byteStride": 8
    },
    {
      "buffer": 0,
      "byteOffset": 42336,
      "byteLength": 10260,
      "target": 34962,
      "byteStride": 12
    },
    {
      "buffer": 0,
      "byteOffset": 52596,
      "byteLength": 10260,
      "target": 34962,
      "byteStride": 12
    },
    {
      "buffer": 0,
      "byteOffset": 62856,
      "byteLength": 6840,
      "target": 34962,
      "byteStride": 8
    }
  ],
  "buffers": [
    {
      "byteLength": 69696,
      "uri": "data:application/octet-stream;base64,"
    }
  ],
  "accessors": [
    {
      "bufferView": 0,
      "componentType": 5126,
      "count": 468,
      "max": [
        0.906544029712677,
        1.7156399488449097,
        3.5458710193634033
      ],
      "min": [
        -2.4361379146575928,
        -0.2903740108013153,
        -0.7026910185813904
      ],
      "type": "VEC3"
    },
    {
      "bufferView": 1,
      "componentType": 5126,
      "count": 468,
      "max": [
        0.9990040063858032,
        0.989018976688385,
        0.9949520230293274
      ],
      "min": [
        -0.994500994682312,
        -0.7224519848823547,
        -0.9113940000534058
      ],
      "type": "VEC3"
    },
    {
      "bufferView": 2,
      "componentType": 5126,
      "count": 468,
      "max": [
        0.9747290015220642,
        0.8888890147209167
      ],
      "min": [
        0.243694007396698,
        0
      ],
      "type": "VEC2"
    },
    {
      "bufferView": 3,
      "componentType": 5126,
      "count": 855,
      "max": [
        4.1832427978515625,
        1.7707289457321167,
        1.8536700010299683
      ],
      "min": [
        -0.9424059987068176,
        -0.32464998960494995,
        -2.2649729251861572
      ],
      "type": "VEC3"
    },
    {
      "bufferView": 4,
      "componentType": 5126,
      "count": 855,
      "max": [
        0.9922540187835693,
        0.989018976688385,
        0.9834420084953308
      ],
      "min": [
        -0.9755619764328003,
        -0.8253780007362366,
        -0.9933540225028992
      ],
      "type": "VEC3"
    },
    {
      "bufferView": 5,
      "componentType": 5126,
      "count": 855,
      "max": [
        0.9747290015220642,
        1
      ],
      "min": [
        0.243694007396698,
        0
      ],
      "type": "VEC2"
    },
    {
      "bufferView": 6,
      "componentType": 5126,
      "count": 855,
      "max": [
        1.100937008857727,
        1.8666449785232544,
        0.5539199709892273
      ],
      "min": [
        -3.543113946914673,
        -0.22873300313949585,
        -3.79093599319458
      ],
      "type": "VEC3"
    },
    {
      "bufferView": 7,
      "componentType": 5126,
      "count": 855,
      "max": [
        0.9996129870414734,
        0.989018976688385,
        0.9973210096359253
      ],
      "min": [
        -0.9855909943580627,
        -0.8253809809684753,
        -0.9987980127334595
      ],
      "type": "VEC3"
    },
    {
      "bufferView": 8,
      "componentType": 5126,
      "count": 855,
      "max": [
        0.9747290015220642,
        1
      ],
      "min": [
        0.243694007396698,
        0
      ],
      "type": "VEC2"
    }
  ],
  "materials": [
    {
      "pbrMetallicRoughness": {
        "metallicFactor": 0,
        "roughnessFactor": 1
      },
      "name": "blinn1SG"
    }
  ],
  "meshes": [
    {
      "primitives": [
        {
          "mode": 4,
          "attributes": {
            "POSITION": 0,
            "NORMAL": 1,
            "TEXCOORD_0": 2
          },
          "material": 0
        }
      ]
    },
    {
      "primitives": [
        {
          "mode": 4,
          "attributes": {
            "POSITION": 3,
            "NORMAL": 4,
            "TEXCOORD_0": 5
          },
          "material": 0
        }
      ]
    },
    {
      "primitives": [
        {
          "mode": 4,
          "attributes": {
            "POSITION": 6,
            "NORMAL": 7,
            "TEXCOORD_0": 8
          },
          "material": 0
        }
      ]
    }
  ]
}